0
SECTION
2
HEADER
9
$INSUNITS
70
4
9
$ACADVER
1
AC1014
9
$HANDSEED
5
FFFF
0
ENDSEC
0
SECTION
2
TABLES
0
TABLE
2
VPORT
5
8
100
AcDbSymbolTable
0
ENDTAB
0
TABLE
2
LTYPE
5
5
100
AcDbSymbolTable
0
LTYPE
5
14
100
AcDbSymbolTableRecord
100
AcDbLinetypeTableRecord
2
BYBLOCK
70
0
0
LTYPE
5
15
100
AcDbSymbolTableRecord
100
AcDbLinetypeTableRecord
2
BYLAYER
70
0
0
ENDTAB
0
TABLE
2
LAYER
5
2
100
AcDbSymbolTable
70
2
0
LAYER
5
50
100
AcDbSymbolTableRecord
100
AcDbLayerTableRecord
2
0
70
0
6
CONTINUOUS
0
ENDTAB
0
TABLE
2
STYLE
5
3
100
AcDbSymbolTable
70
1
0
STYLE
5
11
100
AcDbSymbolTableRecord
100
AcDbTextStyleTableRecord
2
STANDARD
70
0
0
ENDTAB
0
TABLE
2
VIEW
5
6
100
AcDbSymbolTable
70
0
0
ENDTAB
0
TABLE
2
UCS
5
7
100
AcDbSymbolTable
70
0
0
ENDTAB
0
TABLE
2
APPID
5
9
100
AcDbSymbolTable
70
2
0
APPID
5
12
100
AcDbSymbolTableRecord
100
AcDbRegAppTableRecord
2
ACAD
70
0
0
ENDTAB
0
TABLE
2
DIMSTYLE
5
A
100
AcDbSymbolTable
70
1
0
ENDTAB
0
TABLE
2
BLOCK_RECORD
5
1
100
AcDbSymbolTable
70
1
0
BLOCK_RECORD
5
1F
100
AcDbSymbolTableRecord
100
AcDbBlockTableRecord
2
*MODEL_SPACE
0
BLOCK_RECORD
5
1B
100
AcDbSymbolTableRecord
100
AcDbBlockTableRecord
2
*PAPER_SPACE
0
ENDTAB
0
ENDSEC
0
SECTION
2
BLOCKS
0
BLOCK
5
20
100
AcDbEntity
100
AcDbBlockBegin
2
*MODEL_SPACE
0
ENDBLK
5
21
100
AcDbEntity
100
AcDbBlockEnd
0
BLOCK
5
1C
100
AcDbEntity
100
AcDbBlockBegin
2
*PAPER_SPACE
0
ENDBLK
5
1D
100
AcDbEntity
100
AcDbBlockEnd
0
ENDSEC
0
SECTION
2
ENTITIES
0
LWPOLYLINE
5
100
100
AcDbEntity
8
0
100
AcDbPolyline
90
4
70
1
43
0.0
10
-17.942749187308088
20
93.471999999999881
10
-19.049999999988209
20
94.995999999999796
10
-12.894201123669269
20
94.995999999999853
10
-13.302555692934302
20
93.471999999999895
0
LWPOLYLINE
5
101
100
AcDbEntity
8
0
100
AcDbPolyline
90
4
70
1
43
0.0
10
-14.167208723432088
20
88.772999999999826
10
-12.499760898933079
20
94.995999999999754
10
-10.921999999988206
20
94.995999999999384
10
-12.58944782448703
20
88.772999999999769
0
LWPOLYLINE
5
102
100
AcDbEntity
8
0
100
AcDbPolyline
90
4
70
1
43
0.0
10
-12.69153646680323
20
88.391999999999712
10
-14.269297365748333
20
88.391999999999754
10
-15.426286246282094
20
84.074058714055752
10
-14.262385765119959
20
82.529510607647751
0
LWPOLYLINE
5
103
100
AcDbEntity
8
0
100
AcDbPolyline
90
4
70
1
43
0.0
10
-15.80760432346173
20
83.946999999999633
10
-14.563486586741945
20
82.29599999999968
10
-22.375495223750335
20
82.296000000000078
10
-20.223870133189319
20
83.947000000000017
0
LWPOLYLINE
5
104
100
AcDbEntity
8
0
100
AcDbPolyline
90
4
70
1
43
0.0
10
-18.196255103031692
20
93.172725043170004
10
-19.348914666255073
20
94.759224826448786
10
-20.952918774212868
20
88.773000000000266
10
-19.375157875267757
20
88.773000000000337
0
LINE
5
105
100
AcDbEntity
8
0
100
AcDbLine
10
-18.710998410346864
20
94.529404341006838
30
0
11
-19.019233885203736
21
94.305458159883386
31
0
0
LINE
5
106
100
AcDbEntity
8
0
100
AcDbLine
10
-18.865116147775293
20
94.417431250445119
30
0
11
-19.287669497777188
21
94.999026041805351
31
0
0
LINE
5
107
100
AcDbEntity
8
0
100
AcDbLine
10
-15.091511747523185
20
82.996713055299068
30
0
11
-14.787231618195049
21
83.226004579120001
31
0
0
LINE
5
108
100
AcDbEntity
8
0
100
AcDbLine
10
-14.939371682859102
20
83.111358817209521
30
0
11
-13.967501359493584
21
81.821643337285337
31
0
0
LWPOLYLINE
5
109
100
AcDbEntity
8
0
100
AcDbPolyline
90
4
70
1
43
0.0
10
-19.477246517584245
20
88.392000000000422
10
-21.05500741652904
20
88.392000000000351
10
-22.607433328202752
20
82.598267622648024
10
-20.621317859991638
20
84.122267622651378
0
LINE
5
110
100
AcDbEntity
8
0
100
AcDbLine
10
-21.242394630664091
20
83.645698654906823
30
0
11
-21.010456526212309
21
83.343431032256504
31
0
0
LINE
5
111
100
AcDbEntity
8
0
100
AcDbLine
10
-21.126425578438198
20
83.494564843581685
30
0
11
-21.703871103886883
21
83.051475307817242
31
0
0
LWPOLYLINE
5
112
100
AcDbEntity
8
0
100
AcDbPolyline
90
4
70
1
43
0.0
10
-18.810569913337897
20
89.408000000000087
10
-19.25295403004165
20
87.757000000000076
10
-14.833885327677908
20
87.756999999999749
10
-14.391501210974198
20
89.40799999999976
0
LINE
5
113
100
AcDbEntity
8
0
100
AcDbLine
10
-13.562474876617909
20
88.773000000000252
30
0
11
-13.66456351893423
21
88.392000000000053
31
0
0
LINE
5
114
100
AcDbEntity
8
0
100
AcDbLine
10
-13.613519197776068
20
88.582500000000152
30
0
11
-16.29823299305324
21
88.582500000000152
31
0
0
LWPOLYLINE
5
115
100
AcDbEntity
8
0
100
AcDbPolyline
90
4
70
1
43
0.0
10
-37.337999999999994
20
80.518000000000001
10
-37.337999999999994
20
102.87
10
-59.689999999999998
20
102.87
10
-59.689999999999998
20
80.518000000000001
0
LWPOLYLINE
5
116
100
AcDbEntity
8
0
100
AcDbPolyline
90
4
70
1
43
0.0
10
-59.943999999999996
20
103.124
10
-59.943999999999996
20
1.7763568394002505e-14
10
0
20
1.7763568394002505e-14
10
0
20
103.124
0
LWPOLYLINE
5
117
100
AcDbEntity
8
0
100
AcDbPolyline
90
4
70
1
43
0.0
10
-22.605999999999998
20
102.87
10
-0.25399999999999867
20
102.87
10
-0.25399999999999867
20
96.265999999999991
10
-22.605999999999998
20
96.265999999999991
0
LWPOLYLINE
5
118
100
AcDbEntity
8
0
100
AcDbPolyline
90
4
70
1
43
0.0
10
-5.1396043234880162
20
83.947000000000031
10
-3.8954865867686039
20
82.295999999999793
10
-11.707495223749035
20
82.296000000000106
10
-9.5558701331885523
20
83.947000000000003
0
LWPOLYLINE
5
119
100
AcDbEntity
8
0
100
AcDbPolyline
90
4
70
1
43
0.0
10
-3.6012973657601415
20
88.391999999999967
10
-4.7582862462979101
20
84.074058714041684
10
-3.5943857651358666
20
82.529510607634137
10
-2.0235364668152167
20
88.392000000000053
0
LWPOLYLINE
5
120
100
AcDbEntity
8
0
100
AcDbPolyline
90
4
70
1
43
0.0
10
-8.6809146662573689
20
94.759224826436551
10
-10.284918774212288
20
88.773000000000025
10
-8.7071578752696333
20
88.772999999999996
10
-7.5282551030361633
20
93.172725043157783
0
LWPOLYLINE
5
121
100
AcDbEntity
8
0
100
AcDbPolyline
90
4
70
1
43
0.0
10
-3.4992087234438514
20
88.772999999999996
10
-1.8317608989449177
20
94.996000000000009
10
-0.25399999999999867
20
94.996000000000407
10
-1.9214478244989408
20
88.773000000000167
0
LWPOLYLINE
5
122
100
AcDbEntity
8
0
100
AcDbPolyline
90
4
70
1
43
0.0
10
-4.1658853276900878
20
87.756999999999991
10
-3.7235012109863193
20
89.407999999999987
10
-8.1425699133377982
20
89.407999999999987
10
-8.5849540300416081
20
87.756999999999792
0
LWPOLYLINE
5
123
100
AcDbEntity
8
0
100
AcDbPolyline
90
4
70
1
43
0.0
10
-2.6345556929462037
20
93.472000000000008
10
-7.2747491873197925
20
93.471999999999994
10
-8.3820000000000014
20
94.995999999999981
10
-2.2262011236812187
20
94.996000000000009
0
LWPOLYLINE
5
124
100
AcDbEntity
8
0
100
AcDbPolyline
90
4
70
1
43
0.0
10
-8.8092465175871446
20
88.391999999999939
10
-10.387007416525428
20
88.392000000000024
10
-11.939433328198614
20
82.598267622650241
10
-9.9533178599923957
20
84.122267622654988
0
LINE
5
125
100
AcDbEntity
8
0
100
AcDbLine
10
-8.1018766433913179
20
94.610443276462135
30
0
11
-8.410112118248513
21
94.386497095338456
31
0
0
LINE
5
126
100
AcDbEntity
8
0
100
AcDbLine
10
-4.7850426286665249
20
83.476480738949249
30
0
11
-4.4807624993421014
21
83.705772262767297
31
0
0
LINE
5
127
100
AcDbEntity
8
0
100
AcDbLine
10
-8.2559943808199083
20
94.498470185900288
30
0
11
-9.0010090432177403
21
95.523894897710647
31
0
0
LINE
5
128
100
AcDbEntity
8
0
100
AcDbLine
10
-10.942137306900154
20
83.36351977479957
30
0
11
-10.710199202447729
21
83.061252152148512
31
0
0
LINE
5
129
100
AcDbEntity
8
0
100
AcDbLine
10
-17.89318956955875
20
88.582499999999996
30
0
11
-20.577903364835919
21
88.582499999999996
31
0
0
LINE
5
130
100
AcDbEntity
8
0
100
AcDbLine
10
-17.842145248400335
20
88.773000000001034
30
0
11
-17.944233890716667
21
88.392000000000749
31
0
0
LINE
5
131
100
AcDbEntity
8
0
100
AcDbLine
10
-4.6329025640002879
20
83.591126500861321
30
0
11
-4.2352576220173521
21
83.063433839766944
31
0
0
LINE
5
132
100
AcDbEntity
8
0
100
AcDbLine
10
-10.826168254673942
20
83.212385963474063
30
0
11
-11.403613780121983
21
82.769296427710088
31
0
0
LWPOLYLINE
5
133
100
AcDbEntity
8
0
100
AcDbPolyline
90
4
70
1
43
0.0
10
-8.8092465175839383
20
64.007999999999882
10
-10.387007416528817
20
64.007999999999996
10
-11.939433328201599
20
58.214267622650937
10
-9.9533178599916443
20
59.738267622650767
0
LWPOLYLINE
5
134
100
AcDbEntity
8
0
100
AcDbPolyline
90
4
70
1
43
0.0
10
-19.348914666258185
20
70.375224826436906
10
-20.952918774212911
20
64.388999999999982
10
-19.375157875268023
20
64.388999999999967
10
-18.196255103034773
20
68.788725043157996
0
LWPOLYLINE
5
135
100
AcDbEntity
8
0
100
AcDbPolyline
90
4
70
1
43
0.0
10
-12.894201123681599
20
70.612000000000066
10
-13.302555692946566
20
69.088000000000065
10
-17.942749187320135
20
69.088000000000051
10
-19.05000000000036
20
70.612000000000066
0
LWPOLYLINE
5
136
100
AcDbEntity
8
0
100
AcDbPolyline
90
4
70
1
43
0.0
10
-8.1425699133375904
20
65.024000000000015
10
-8.5849540300414215
20
63.373000000000005
10
-4.1658853276900318
20
63.373000000000019
10
-3.7235012109862642
20
65.024000000000001
0
LWPOLYLINE
5
137
100
AcDbEntity
8
0
100
AcDbPolyline
90
4
70
1
43
0.0
10
-14.833885327690455
20
63.373000000000054
10
-14.39150121098664
20
65.024000000000058
10
-18.810569913337961
20
65.024000000000058
10
-19.2529540300417
20
63.373000000000047
0
LINE
5
138
100
AcDbEntity
8
0
100
AcDbLine
10
-20.33133289660686
20
64.388999999999982
30
0
11
-20.433421538923074
21
64.008000000000123
31
0
0
LWPOLYLINE
5
139
100
AcDbEntity
8
0
100
AcDbPolyline
90
4
70
1
43
0.0
10
-10.28491877421256
20
64.388999999999967
10
-8.7071578752676881
20
64.388999999999882
10
-7.5282551030344802
20
68.788725043157882
10
-8.6809146662576691
20
70.375224826436579
0
LINE
5
140
100
AcDbEntity
8
0
100
AcDbLine
10
-7.8891085289299632
20
69.933593090464811
30
0
11
-8.1973440037868386
21
69.709646909341387
31
0
0
LWPOLYLINE
5
141
100
AcDbEntity
8
0
100
AcDbPolyline
90
4
70
1
43
0.0
10
-12.691536466815453
20
64.00800000000001
10
-14.269297365760265
20
64.008000000000052
10
-15.426286246294049
20
59.690058714055297
10
-14.262385765132048
20
58.145510607648276
0
LINE
5
142
100
AcDbEntity
8
0
100
AcDbLine
10
-8.0432262663584062
20
69.821619999903092
30
0
11
-8.4657793902137133
21
70.403214480016103
31
0
0
LWPOLYLINE
5
143
100
AcDbEntity
8
0
100
AcDbPolyline
90
4
70
1
43
0.0
10
-12.589447824499153
20
64.388999999999982
10
-14.167208723443977
20
64.388999999999982
10
-12.499760898945254
20
70.611999999999995
10
-10.922000000000363
20
70.611999999999981
0
LWPOLYLINE
5
144
100
AcDbEntity
8
0
100
AcDbPolyline
90
4
70
1
43
0.0
10
-19.477246517584245
20
64.007999999999981
10
-21.055007416529151
20
64.007999999999981
10
-22.607433328201644
20
58.214267622651093
10
-20.621317859992057
20
59.738267622651165
0
LWPOLYLINE
5
145
100
AcDbEntity
8
0
100
AcDbPolyline
90
4
70
1
43
0.0
10
-7.2747491873198289
20
69.088000000000008
10
-8.3820000000000014
20
70.612000000000023
10
-2.2262011236811876
20
70.612000000000023
10
-2.6345556929462033
20
69.088000000000022
0
LINE
5
146
100
AcDbEntity
8
0
100
AcDbLine
10
-20.382377217764965
20
64.198500000000053
30
0
11
-23.06709101304213
21
64.198500000000053
31
0
0
LINE
5
147
100
AcDbEntity
8
0
100
AcDbLine
10
-18.501284336755631
20
69.532659723648621
30
0
11
-19.232698080325402
21
70.539364376681931
31
0
0
LINE
5
148
100
AcDbEntity
8
0
100
AcDbLine
10
-18.347166599327217
20
69.64463281421034
30
0
11
-18.65540207418405
21
69.42068663308693
31
0
0
LINE
5
149
100
AcDbEntity
8
0
100
AcDbLine
10
-10.957407866355759
20
58.96780226240751
30
0
11
-10.725469761903428
21
58.66553463975653
31
0
0
LWPOLYLINE
5
150
100
AcDbEntity
8
0
100
AcDbPolyline
90
4
70
1
43
0.0
10
-0.25399999999999978
20
70.611999999999938
10
-1.9214478244989042
20
64.388999999999882
10
-3.4992087234439162
20
64.388999999999854
10
-1.8317608989449561
20
70.611999999999938
0
LWPOLYLINE
5
151
100
AcDbEntity
8
0
100
AcDbPolyline
90
4
70
1
43
0.0
10
-3.8954865867538757
20
57.911999999999992
10
-11.707495223749145
20
57.912000000000006
10
-9.5558701331882823
20
59.562999999999995
10
-5.1396043234735362
20
59.562999999999995
0
LINE
5
152
100
AcDbEntity
8
0
100
AcDbLine
10
-4.6455475155664026
20
58.907364471480378
30
0
11
-4.3412673862383819
21
59.136655995301297
31
0
0
LINE
5
153
100
AcDbEntity
8
0
100
AcDbLine
10
-9.9683772177648819
20
64.198500000000024
30
0
11
-12.653091013042053
21
64.198500000000024
31
0
0
LWPOLYLINE
5
154
100
AcDbEntity
8
0
100
AcDbPolyline
90
4
70
1
43
0.0
10
-2.0235364668151092
20
64.008000000000067
10
-3.6012973657601375
20
64.008000000000081
10
-4.75828624629386
20
59.69005871405605
10
-3.5943857651318147
20
58.145510607648234
0
LWPOLYLINE
5
155
100
AcDbEntity
8
0
100
AcDbPolyline
90
4
70
1
43
0.0
10
-14.563486586754184
20
57.912000000000035
10
-22.375495223749159
20
57.912000000000063
10
-20.223870133189031
20
59.563000000000052
10
-15.807604323473514
20
59.563000000000052
0
LINE
5
156
100
AcDbEntity
8
0
100
AcDbLine
10
-15.658626419520974
20
59.681842090907224
30
0
11
-15.260981477543655
21
59.154149429812676
31
0
0
LINE
5
157
100
AcDbEntity
8
0
100
AcDbLine
10
-10.841438814129596
20
58.816668451082023
30
0
11
-12.020425693588987
21
57.912000000000006
31
0
0
LINE
5
158
100
AcDbEntity
8
0
100
AcDbLine
10
-9.917332896606764
20
64.388999999999982
30
0
11
-10.019421538923003
21
64.008000000000052
31
0
0
LINE
5
159
100
AcDbEntity
8
0
100
AcDbLine
10
-4.4934074509023656
20
59.022010233390873
30
0
11
-3.6569547438752563
21
57.91200000000002
31
0
0
LINE
5
160
100
AcDbEntity
8
0
100
AcDbLine
10
-15.810766484184667
20
59.567196328996914
30
0
11
-15.506486354857278
21
59.796487852817506
31
0
0
LINE
5
161
100
AcDbEntity
8
0
100
AcDbLine
10
-21.938628280920149
20
58.727459785126868
30
0
11
-21.706690176467703
21
58.425192162475838
31
0
0
LINE
5
162
100
AcDbEntity
8
0
100
AcDbLine
10
-21.822659228693922
20
58.576325973801346
30
0
11
-22.400104754139658
21
58.133236438039084
31
0
0
LWPOLYLINE
5
163
100
AcDbEntity
8
0
100
AcDbPolyline
90
4
70
1
43
0.0
10
-0.25399999999999867
20
78.739999999999981
10
-22.605998542815399
20
78.740000000000009
10
-22.605998542815399
20
72.135999999999996
10
-0.25400000000000111
20
72.135999999999981
0
LINE
5
164
100
AcDbEntity
8
0
100
AcDbLine
10
-45.968377217764882
20
64.198500000000124
30
0
11
-48.653091013042058
21
64.198500000000124
31
0
0
LWPOLYLINE
5
165
100
AcDbEntity
8
0
100
AcDbPolyline
90
4
70
1
43
0.0
10
-51.475502668170783
20
65.024000000000171
10
-55.894571370521319
20
65.024000000000171
10
-56.336955487225183
20
63.373000000000168
10
-51.917886784874526
20
63.373000000000168
0
LWPOLYLINE
5
166
100
AcDbEntity
8
0
100
AcDbPolyline
90
4
70
1
43
0.0
10
-56.134001457184041
20
70.612000000000194
10
-49.978202580865471
20
70.612000000000165
10
-50.386557150130677
20
69.088000000000164
10
-55.026750644503657
20
69.088000000000164
0
LWPOLYLINE
5
167
100
AcDbEntity
8
0
100
AcDbPolyline
90
4
70
1
43
0.0
10
-49.673449281683361
20
64.389000000000024
10
-51.251210180628618
20
64.389000000000038
10
-49.583762356129469
20
70.612000000000165
10
-48.006001457184098
20
70.612000000000165
0
LWPOLYLINE
5
168
100
AcDbEntity
8
0
100
AcDbPolyline
90
4
70
1
43
0.0
10
-39.718557150130792
20
69.08800000000015
10
-44.358750644504347
20
69.088000000000136
10
-45.466001457184582
20
70.612000000000151
10
-39.310202580865756
20
70.612000000000137
0
LWPOLYLINE
5
169
100
AcDbEntity
8
0
100
AcDbPolyline
90
4
70
1
43
0.0
10
-49.775537923999515
20
64.008000000000308
10
-51.353298822944808
20
64.008000000000294
10
-52.510287703478539
20
59.690058714057031
10
-51.34638722231648
20
58.145510607648674
0
LWPOLYLINE
5
170
100
AcDbEntity
8
0
100
AcDbPolyline
90
4
70
1
43
0.0
10
-47.368920231396885
20
64.389000000000095
10
-45.791159332451826
20
64.389000000000067
10
-44.612256560218881
20
68.788725043157584
10
-45.764916123442248
20
70.375224826436622
0
LWPOLYLINE
5
171
100
AcDbEntity
8
0
100
AcDbPolyline
90
4
70
1
43
0.0
10
-40.807502668170876
20
65.0240000000001
10
-45.226571370521981
20
65.024000000000129
10
-45.668955487225688
20
63.373000000000118
10
-41.249886784874647
20
63.373000000000125
0
LWPOLYLINE
5
172
100
AcDbEntity
8
0
100
AcDbPolyline
90
4
70
1
43
0.0
10
-40.583210180628264
20
64.389000000000124
10
-38.915762356129505
20
70.612000000000123
10
-37.338001457184589
20
70.612000000000108
10
-39.005449281683383
20
64.389000000000124
0
LINE
5
173
100
AcDbEntity
8
0
100
AcDbLine
10
-45.91733289660678
20
64.38900000000001
30
0
11
-46.019421538922984
21
64.008000000000223
31
0
0
LWPOLYLINE
5
174
100
AcDbEntity
8
0
100
AcDbPolyline
90
4
70
1
43
0.0
10
-39.107537923999615
20
64.008000000000266
10
-40.685298822944489
20
64.008000000000237
10
-41.842287703478391
20
59.690058714055198
10
-40.678387222316353
20
58.145510607648106
0
LWPOLYLINE
5
175
100
AcDbEntity
8
0
100
AcDbPolyline
90
4
70
1
43
0.0
10
-51.647488043938466
20
57.912000000000162
10
-59.459496680933981
20
57.912000000000184
10
-57.30787159037132
20
59.563000000000073
10
-52.891605780659305
20
59.563000000000073
0
LINE
5
176
100
AcDbEntity
8
0
100
AcDbLine
10
-52.442016851604556
20
59.282917786725278
30
0
11
-52.04437190962706
21
58.755225125630432
31
0
0
LINE
5
177
100
AcDbEntity
8
0
100
AcDbLine
10
-52.594156916269114
20
59.168272024814577
30
0
11
-52.289876786940013
21
59.397563548635915
31
0
0
LWPOLYLINE
5
178
100
AcDbEntity
8
0
100
AcDbPolyline
90
4
70
1
43
0.0
10
-45.893247974768087
20
64.008000000000109
10
-47.471008873713174
20
64.008000000000095
10
-49.023434785385689
20
58.214267622651178
10
-47.037319317175708
20
59.738267622651335
0
LWPOLYLINE
5
179
100
AcDbEntity
8
0
100
AcDbPolyline
90
4
70
1
43
0.0
10
-56.459159332451335
20
64.389000000000124
10
-55.280256560218355
20
68.788725043157712
10
-56.432916123441473
20
70.375224826436337
10
-58.036920231396337
20
64.389000000000124
0
LINE
5
180
100
AcDbEntity
8
0
100
AcDbLine
10
-55.29852734316016
20
69.137970576454052
30
0
11
-56.0299410867297
21
70.144675229487703
31
0
0
LINE
5
181
100
AcDbEntity
8
0
100
AcDbLine
10
-56.636377217764888
20
64.198500000000195
30
0
11
-59.32109101304205
21
64.198500000000195
31
0
0
LINE
5
182
100
AcDbEntity
8
0
100
AcDbLine
10
-56.585332896606772
20
64.389000000000181
30
0
11
-56.687421538923005
21
64.008000000000209
31
0
0
LINE
5
183
100
AcDbEntity
8
0
100
AcDbLine
10
-55.144409605731653
20
69.249943667015799
30
0
11
-55.452645080588695
21
69.025997485892248
31
0
0
LWPOLYLINE
5
184
100
AcDbEntity
8
0
100
AcDbPolyline
90
4
70
1
43
0.0
10
-56.561247974767838
20
64.008000000000123
10
-58.139008873712669
20
64.008000000000123
10
-59.691434785385873
20
58.214267622650155
10
-57.705319317175466
20
59.738267622650277
0
LWPOLYLINE
5
185
100
AcDbEntity
8
0
100
AcDbPolyline
90
4
70
1
43
0.0
10
-37.338001457184589
20
78.740000000000123
10
-59.689999999999984
20
78.740000000000123
10
-59.689999999999998
20
72.136000000000138
10
-37.338001457184589
20
72.136000000000124
0
LINE
5
186
100
AcDbEntity
8
0
100
AcDbLine
10
-58.500218917212869
20
59.12831970680795
30
0
11
-58.268280812760899
21
58.826052084157297
31
0
0
LINE
5
187
100
AcDbEntity
8
0
100
AcDbLine
10
-58.384249864986884
20
58.977185895482656
30
0
11
-58.96169539044039
21
58.534096359714702
31
0
0
LINE
5
188
100
AcDbEntity
8
0
100
AcDbLine
10
-41.926156916267828
20
59.168272024813746
30
0
11
-41.621876786940007
21
59.397563548634544
31
0
0
LINE
5
189
100
AcDbEntity
8
0
100
AcDbLine
10
-44.598596693620991
20
69.418119765700681
30
0
11
-44.906832168477905
21
69.194173584577157
31
0
0
LINE
5
190
100
AcDbEntity
8
0
100
AcDbLine
10
-44.752714431049426
20
69.306146675138962
30
0
11
-45.17526755490448
21
69.887741155251788
31
0
0
LWPOLYLINE
5
191
100
AcDbEntity
8
0
100
AcDbPolyline
90
4
70
1
43
0.0
10
-40.979488043938694
20
57.912000000000134
10
-48.791496680933534
20
57.912000000000148
10
-46.639871590372749
20
59.563000000000137
10
-42.223605780658424
20
59.563000000000137
0
LINE
5
192
100
AcDbEntity
8
0
100
AcDbLine
10
-41.774016851603903
20
59.282917786724134
30
0
11
-41.113693698861418
21
58.406639366281475
31
0
0
LINE
5
193
100
AcDbEntity
8
0
100
AcDbLine
10
-47.243159431703418
20
59.340200952696485
30
0
11
-47.820604957151993
21
58.897111416932084
31
0
0
LINE
5
194
100
AcDbEntity
8
0
100
AcDbLine
10
-47.359128483929574
20
59.491334764022
30
0
11
-47.127190379477256
21
59.189067141371019
31
0
0
LWPOLYLINE
5
195
100
AcDbEntity
8
0
100
AcDbPolyline
90
4
70
1
43
0.0
10
-53.676425693589003
20
56.387999999999991
10
-3.6569547438752616
20
56.387999999999991
10
-3.6569547438752625
20
54.86399999999999
10
-53.676425693589003
20
54.86399999999999
0
LWPOLYLINE
5
196
100
AcDbEntity
8
0
100
AcDbPolyline
90
4
70
1
43
0.0
10
-2.2262011236803354
20
51.308
10
-2.6345556929455278
20
49.784000000000042
10
-7.274749187319788
20
49.784000000000013
10
-8.3820000000000014
20
51.308000000000071
0
LWPOLYLINE
5
197
100
AcDbEntity
8
0
100
AcDbPolyline
90
4
70
1
43
0.0
10
-9.5558701332008056
20
40.258999999999943
10
-5.1396043234772453
20
40.258999999999972
10
-3.8954865867617072
20
38.608000000000004
10
-11.707495223761381
20
38.608000000000018
0
LWPOLYLINE
5
198
100
AcDbEntity
8
0
100
AcDbPolyline
90
4
70
1
43
0.0
10
-11.93943332819812
20
38.910267622663625
10
-9.953317859988621
20
40.434267622662659
10
-8.8092465175837429
20
44.704000000000178
10
-10.387007416528826
20
44.704000000000292
0
LWPOLYLINE
5
199
100
AcDbEntity
8
0
100
AcDbPolyline
90
4
70
1
43
0.0
10
-3.5943857651396893
20
38.841510607648488
10
-2.023536466819333
20
44.703999999999738
10
-3.6012973657609093
20
44.703999999999752
10
-4.7582862462943583
20
40.386058714051643
0
LINE
5
200
100
AcDbEntity
8
0
100
AcDbLine
10
-10.3276242276232
20
40.147052245004353
30
0
11
-10.095686123170907
21
39.844784622353458
31
0
0
LINE
5
201
100
AcDbEntity
8
0
100
AcDbLine
10
-10.211655175397054
20
39.995918433678909
30
0
11
-12.020425693589017
21
38.608000000000018
31
0
0
LWPOLYLINE
5
202
100
AcDbEntity
8
0
100
AcDbPolyline
90
4
70
1
43
0.0
10
-1.8317608989442802
20
51.308000000000007
10
-0.25400000000000089
20
51.308000000000007
10
-1.9214478244981033
20
45.084999999999951
10
-3.4992087234432234
20
45.085000000000015
0
LWPOLYLINE
5
203
100
AcDbEntity
8
0
100
AcDbPolyline
90
4
70
1
43
0.0
10
-8.7071578752674945
20
45.085000000000164
10
-7.5282551030344713
20
49.484725043157958
10
-8.680914666257797
20
51.071224826436719
10
-10.28491877421258
20
45.085000000000257
0
LINE
5
204
100
AcDbEntity
8
0
100
AcDbLine
10
-9.9173328966068564
20
45.085000000000257
30
0
11
-10.019421538923224
21
44.70399999999978
31
0
0
LINE
5
205
100
AcDbEntity
8
0
100
AcDbLine
10
-8.6633151149858509
20
51.371099080223253
30
0
11
-9.0858682388420799
21
51.952693560337543
31
0
0
LINE
5
206
100
AcDbEntity
8
0
100
AcDbLine
10
-8.5091973775574363
20
51.483072170784993
30
0
11
-8.817432852414278
21
51.259125989661527
31
0
0
LWPOLYLINE
5
207
100
AcDbEntity
8
0
100
AcDbPolyline
90
4
70
1
43
0.0
10
-8.5849540300414624
20
44.06900000000001
10
-4.1658853276894696
20
44.069000000000017
10
-3.723501210985694
20
45.719999999999999
10
-8.1425699133388374
20
45.720000000000013
0
LINE
5
208
100
AcDbEntity
8
0
100
AcDbLine
10
-5.2722901413163097
20
40.435080027466356
30
0
11
-4.9680100119878317
21
40.664371551286855
31
0
0
LINE
5
209
100
AcDbEntity
8
0
100
AcDbLine
10
-5.1201500766520898
20
40.549725789376616
30
0
11
-3.6569547438833538
21
38.608000000000004
31
0
0
LWPOLYLINE
5
210
100
AcDbEntity
8
0
100
AcDbPolyline
90
4
70
1
43
0.0
10
-20.801007416451085
20
44.704000000274029
10
-22.353433328198374
20
38.910267622661991
10
-20.367317859983338
20
40.434267622666418
10
-19.223246517505743
20
44.704000000273929
0
LWPOLYLINE
5
211
100
AcDbEntity
8
0
100
AcDbPolyline
90
4
70
1
43
0.0
10
-12.640201123672078
20
51.30799999999995
10
-13.04855569293721
20
49.784000000000042
10
-17.688749187311263
20
49.78400000000002
10
-18.795999999991313
20
51.308000000000064
0
LWPOLYLINE
5
212
100
AcDbEntity
8
0
100
AcDbPolyline
90
4
70
1
43
0.0
10
-19.121157875189489
20
45.085000000273929
10
-17.942255103028888
20
49.48472504316203
10
-19.094914666249259
20
51.071224826436847
10
-20.698918774134583
20
45.085000000274043
0
LWPOLYLINE
5
213
100
AcDbEntity
8
0
100
AcDbPolyline
90
4
70
1
43
0.0
10
-18.998954030037002
20
44.069000000000038
10
-14.579885327682822
20
44.069000000000045
10
-14.137501210977344
20
45.720000000000027
10
-18.556569913333256
20
45.720000000000034
0
LINE
5
214
100
AcDbEntity
8
0
100
AcDbLine
10
-15.384207009300241
20
40.350744618325074
30
0
11
-14.070954743865993
21
38.608000000000025
31
0
0
LWPOLYLINE
5
215
100
AcDbEntity
8
0
100
AcDbPolyline
90
4
70
1
43
0.0
10
-22.121495223761045
20
38.60800000000004
10
-19.969870133200342
20
40.258999999999972
10
-15.553604323464747
20
40.259
10
-14.309486586745024
20
38.608000000000025
0
LINE
5
216
100
AcDbEntity
8
0
100
AcDbLine
10
-20.365079633057832
20
40.195865079722651
30
0
11
-22.434425693589034
21
38.60800000000004
31
0
0
LWPOLYLINE
5
217
100
AcDbEntity
8
0
100
AcDbPolyline
90
4
70
1
43
0.0
10
-15.17228624628785
20
40.386058714059203
10
-14.00838576512264
20
38.841510607647976
10
-12.437536466895612
20
44.703999999666372
10
-14.015297365839999
20
44.703999999678842
0
LINE
5
218
100
AcDbEntity
8
0
100
AcDbLine
10
-15.536347073971688
20
40.236098856409157
30
0
11
-15.232066944643748
21
40.465390380230033
31
0
0
LWPOLYLINE
5
219
100
AcDbEntity
8
0
100
AcDbPolyline
90
4
70
1
43
0.0
10
-12.245760898935917
20
51.30799999999995
10
-10.667999999991316
20
51.30799999999995
10
-12.335447824416349
20
45.085000000274846
10
-13.913208723363951
20
45.085000000274633
0
LINE
5
220
100
AcDbEntity
8
0
100
AcDbLine
10
-18.934281632821705
20
51.174230381362079
30
0
11
-19.356834756674978
21
51.755824861472313
31
0
0
LINE
5
221
100
AcDbEntity
8
0
100
AcDbLine
10
-18.780163895393269
20
51.286203471923805
30
0
11
-19.088399370250148
21
51.062257290800375
31
0
0
LINE
5
222
100
AcDbEntity
8
0
100
AcDbLine
10
-19.917332896517664
20
45.085000000273823
30
0
11
-20.019421538980652
21
44.703999999726292
31
0
0
LINE
5
223
100
AcDbEntity
8
0
100
AcDbLine
10
-20.481048685283927
20
40.346998891048081
30
0
11
-20.249110580831736
21
40.044731268397264
31
0
0
LINE
5
224
100
AcDbEntity
8
0
100
AcDbLine
10
-9.9683772177650258
20
44.894500000000015
30
0
11
-7.1603421798869649
21
44.894500000000015
31
0
0
LINE
5
225
100
AcDbEntity
8
0
100
AcDbLine
10
-19.968377217749161
20
44.894500000000008
30
0
11
-17.364258416827536
21
44.894500000000008
31
0
0
LINE
5
226
100
AcDbEntity
8
0
100
AcDbLine
10
-30.895048685280795
20
40.34699889104148
30
0
11
-30.663110580828459
21
40.044731268390535
31
0
0
LWPOLYLINE
5
227
100
AcDbEntity
8
0
100
AcDbPolyline
90
4
70
1
43
0.0
10
-25.967604323483073
20
40.259000000000015
10
-24.723486586763403
20
38.608000000000054
10
-32.535495223749265
20
38.608000000000068
10
-30.383870133188495
20
40.259000000000007
0
LWPOLYLINE
5
228
100
AcDbEntity
8
0
100
AcDbPolyline
90
4
70
1
43
0.0
10
-32.767433328201761
20
38.910267622651034
10
-30.781317859996861
20
40.434267622646949
10
-29.637246517511784
20
44.704000000278043
10
-31.215007416453503
20
44.704000000278143
0
LWPOLYLINE
5
229
100
AcDbEntity
8
0
100
AcDbPolyline
90
4
70
1
43
0.0
10
-28.102749187327937
20
49.784000000000141
10
-29.210000000008076
20
51.308000000000156
10
-23.054201123689928
20
51.308000000000021
10
-23.462555692954904
20
49.784000000000155
0
LINE
5
230
100
AcDbEntity
8
0
100
AcDbLine
10
-29.194163895396173
20
51.286203471921709
30
0
11
-29.50239937025308
21
51.062257290798257
31
0
0
LINE
5
231
100
AcDbEntity
8
0
100
AcDbLine
10
-29.348281632824623
20
51.174230381359997
30
0
11
-29.770834756677857
21
51.755824861470224
31
0
0
LWPOLYLINE
5
232
100
AcDbEntity
8
0
100
AcDbPolyline
90
4
70
1
43
0.0
10
-28.356255103039629
20
49.484725043153929
10
-29.508914666265717
20
51.071224826436641
10
-31.112918774137199
20
45.08500000027815
10
-29.535157875195573
20
45.085000000278029
0
LWPOLYLINE
5
233
100
AcDbEntity
8
0
100
AcDbPolyline
90
4
70
1
43
0.0
10
-22.6597608989536
20
51.308000000000035
10
-21.082000000008065
20
51.30800000000005
10
-22.749447824425463
20
45.085000000276196
10
-24.327208723358524
20
45.085000000276622
0
LINE
5
234
100
AcDbEntity
8
0
100
AcDbLine
10
-25.79820700931192
20
40.350744618316739
30
0
11
-24.484954743884771
21
38.608000000000054
31
0
0
LWPOLYLINE
5
235
100
AcDbEntity
8
0
100
AcDbPolyline
90
4
70
1
43
0.0
10
-25.58628624629047
20
40.386058714049199
10
-24.422385765141264
20
38.841510607648438
10
-22.85153646690679
20
44.703999999662145
10
-24.429297365834945
20
44.703999999674608
0
LINE
5
236
100
AcDbEntity
8
0
100
AcDbLine
10
-25.950347073976001
20
40.23609885640623
30
0
11
-25.646066944647853
21
40.465390380227262
31
0
0
LINE
5
237
100
AcDbEntity
8
0
100
AcDbLine
10
-30.779079633054629
20
40.195865079716022
30
0
11
-32.848425693589014
21
38.608000000000068
31
0
0
LWPOLYLINE
5
238
100
AcDbEntity
8
0
100
AcDbPolyline
90
4
70
1
43
0.0
10
-29.412954030045562
20
44.069000000000131
10
-24.993885327679479
20
44.069000000000152
10
-24.551501210977268
20
45.720000000000134
10
-28.970569913341709
20
45.720000000000127
0
LINE
5
239
100
AcDbEntity
8
0
100
AcDbLine
10
-30.382377217749159
20
44.894500000000107
30
0
11
-27.778258416827537
21
44.894500000000114
31
0
0
LINE
5
240
100
AcDbEntity
8
0
100
AcDbLine
10
-30.3313328965165
20
45.085000000278242
30
0
11
-30.433421538981811
21
44.703999999722022
31
0
0
LWPOLYLINE
5
241
100
AcDbEntity
8
0
100
AcDbPolyline
90
4
70
1
43
0.0
10
-34.741208723370278
20
45.085000000276622
10
-33.073760898935902
20
51.30799999999995
10
-31.495999999991305
20
51.30799999999995
10
-33.163447824424445
20
45.085000000276594
0
LWPOLYLINE
5
242
100
AcDbEntity
8
0
100
AcDbPolyline
90
4
70
1
43
0.0
10
-33.468201123672067
20
51.30799999999995
10
-33.876555692937195
20
49.784000000000042
10
-38.516749187311248
20
49.78400000000002
10
-39.623999999991298
20
51.308000000000064
0
LWPOLYLINE
5
243
100
AcDbEntity
8
0
100
AcDbPolyline
90
4
70
1
43
0.0
10
-34.96550121097733
20
45.720000000000027
10
-39.384569913333245
20
45.720000000000027
10
-39.826954030036987
20
44.069000000000038
10
-35.407885327682813
20
44.069000000000038
0
LWPOLYLINE
5
244
100
AcDbEntity
8
0
100
AcDbPolyline
90
4
70
1
43
0.0
10
-42.949495223761083
20
38.608000000000089
10
-40.797870133200348
20
40.259000000000015
10
-36.381604323464735
20
40.259
10
-35.137486586745013
20
38.608000000000018
0
LINE
5
245
100
AcDbEntity
8
0
100
AcDbLine
10
-36.2122070093057
20
40.350744618320789
30
0
11
-34.898954743865986
21
38.608000000000018
31
0
0
LINE
5
246
100
AcDbEntity
8
0
100
AcDbLine
10
-41.19307963305782
20
40.195865079722651
30
0
11
-43.262425693589023
21
38.60800000000004
31
0
0
LWPOLYLINE
5
247
100
AcDbEntity
8
0
100
AcDbPolyline
90
4
70
1
43
0.0
10
-38.770255103028873
20
49.484725043162015
10
-39.922914666249248
20
51.071224826436833
10
-41.526918774138281
20
45.085000000276814
10
-39.949157875189393
20
45.085000000276708
0
LINE
5
248
100
AcDbEntity
8
0
100
AcDbLine
10
-40.796377217749153
20
44.894499999999994
30
0
11
-38.192258416827521
21
44.894499999999994
31
0
0
LWPOLYLINE
5
249
100
AcDbEntity
8
0
100
AcDbPolyline
90
4
70
1
43
0.0
10
-43.18143332819546
20
38.910267622673302
10
-41.195317859983803
20
40.434267622665452
10
-40.051246517505525
20
44.704000000276707
10
-41.629007416454506
20
44.7040000002768
0
LINE
5
250
100
AcDbEntity
8
0
100
AcDbLine
10
-36.364347073963344
20
40.236098856415083
30
0
11
-36.060066944635373
21
40.465390380236059
31
0
0
LWPOLYLINE
5
251
100
AcDbEntity
8
0
100
AcDbPolyline
90
4
70
1
43
0.0
10
-43.487760898953589
20
51.308000000000021
10
-41.910000000008054
20
51.308000000000042
10
-43.577447824424453
20
45.085000000275848
10
-45.155208723368538
20
45.085000000275897
0
LINE
5
252
100
AcDbEntity
8
0
100
AcDbLine
10
-39.608163895385104
20
51.28620347192971
30
0
11
-39.916399370241976
21
51.062257290806301
31
0
0
LINE
5
253
100
AcDbEntity
8
0
100
AcDbLine
10
-39.76228163281354
20
51.174230381368005
30
0
11
-40.184834756666781
21
51.75582486147826
31
0
0
LWPOLYLINE
5
254
100
AcDbEntity
8
0
100
AcDbPolyline
90
4
70
1
43
0.0
10
-36.000286246287281
20
40.386058714047664
10
-34.836385765122628
20
38.841510607647969
10
-33.265536466904415
20
44.70399999966353
10
-34.843297365848308
20
44.703999999676
0
LINE
5
255
100
AcDbEntity
8
0
100
AcDbLine
10
-41.309048685283912
20
40.346998891048074
30
0
11
-41.077110580831722
21
40.044731268397257
31
0
0
LWPOLYLINE
5
256
100
AcDbEntity
8
0
100
AcDbPolyline
90
4
70
1
43
0.0
10
-45.379501210995073
20
45.720000000000113
10
-49.798569913341701
20
45.720000000000113
10
-50.24095403004555
20
44.069000000000131
10
-45.821885327697281
20
44.069000000000131
0
LINE
5
257
100
AcDbEntity
8
0
100
AcDbLine
10
-51.210377217749148
20
44.894500000000107
30
0
11
-48.606258416827529
21
44.894500000000107
31
0
0
LWPOLYLINE
5
258
100
AcDbEntity
8
0
100
AcDbPolyline
90
4
70
1
43
0.0
10
-51.940918774137728
20
45.085000000276132
10
-50.363157875196137
20
45.085000000276011
10
-49.184255103039618
20
49.484725043153915
10
-50.336914666265706
20
51.071224826436641
0
LWPOLYLINE
5
259
100
AcDbEntity
8
0
100
AcDbPolyline
90
4
70
1
43
0.0
10
-51.211870133188484
20
40.259
10
-46.795604323483062
20
40.259000000000015
10
-45.551486586763389
20
38.608000000000047
10
-53.363495223749254
20
38.608000000000061
0
LINE
5
260
100
AcDbEntity
8
0
100
AcDbLine
10
-46.778347073975993
20
40.23609885640623
30
0
11
-46.474066944647845
21
40.465390380227255
31
0
0
LWPOLYLINE
5
261
100
AcDbEntity
8
0
100
AcDbPolyline
90
4
70
1
43
0.0
10
-50.038000000008068
20
51.308000000000149
10
-43.882201123689917
20
51.308000000000021
10
-44.290555692954889
20
49.784000000000148
10
-48.930749187327926
20
49.784000000000134
0
LWPOLYLINE
5
262
100
AcDbEntity
8
0
100
AcDbPolyline
90
4
70
1
43
0.0
10
-50.465246517512327
20
44.704000000276039
10
-52.043007416454046
20
44.704000000276132
10
-53.59543332820175
20
38.910267622651034
10
-51.60931785999685
20
40.434267622646942
0
LWPOLYLINE
5
263
100
AcDbEntity
8
0
100
AcDbPolyline
90
4
70
1
43
0.0
10
-46.414286246300222
20
40.386058714064418
10
-45.25038576514126
20
38.841510607648438
10
-43.679536466905134
20
44.703999999664426
10
-45.257297365844444
20
44.703999999676896
0
LINE
5
264
100
AcDbEntity
8
0
100
AcDbLine
10
-51.607079633054617
20
40.195865079716015
30
0
11
-53.676425693589003
21
38.608000000000061
31
0
0
LINE
5
265
100
AcDbEntity
8
0
100
AcDbLine
10
-46.626207009306228
20
40.350744618321592
30
0
11
-45.31295474388476
21
38.608000000000047
31
0
0
LINE
5
266
100
AcDbEntity
8
0
100
AcDbLine
10
-51.159332896517085
20
45.085000000276104
30
0
11
-51.261421538981196
21
44.70399999972436
31
0
0
LINE
5
267
100
AcDbEntity
8
0
100
AcDbLine
10
-40.745332896516906
20
45.085000000276722
30
0
11
-40.847421538981393
21
44.703999999723464
31
0
0
LINE
5
268
100
AcDbEntity
8
0
100
AcDbLine
10
-51.723048685280787
20
40.34699889104148
30
0
11
-51.491110580828447
21
40.044731268390535
31
0
0
LINE
5
269
100
AcDbEntity
8
0
100
AcDbLine
10
-50.176281632824612
20
51.174230381359997
30
0
11
-50.598834756677846
21
51.755824861470217
31
0
0
LINE
5
270
100
AcDbEntity
8
0
100
AcDbLine
10
-50.022163895396162
20
51.286203471921695
30
0
11
-50.330399370253069
21
51.062257290798257
31
0
0
LWPOLYLINE
5
271
100
AcDbEntity
8
0
100
AcDbPolyline
90
4
70
1
43
0.0
10
-52.959000000000003
20
44.196000000000168
10
-59.690000000000005
20
44.196000000000168
10
-59.690000000000005
20
45.720000000000233
10
-52.959000000000003
20
45.720000000000169
0
LWPOLYLINE
5
272
100
AcDbEntity
8
0
100
AcDbPolyline
90
4
70
1
43
0.0
10
-55.5625
20
49.276000000000209
10
-57.086500000000001
20
49.276000000000209
10
-57.086500000000001
20
46.101000000000255
10
-55.5625
20
46.101000000000255
0
LWPOLYLINE
5
273
100
AcDbEntity
8
0
100
AcDbPolyline
90
4
70
1
43
0.0
10
-55.5625
20
43.815000000000168
10
-57.086500000000001
20
43.815000000000168
10
-57.086500000000001
20
40.640000000000214
10
-55.5625
20
40.640000000000214
0
LINE
5
274
100
AcDbEntity
8
0
100
AcDbLine
10
-56.3245
20
46.101000000000255
30
0
11
-56.3245
21
40.668262436257116
31
0
0
LWPOLYLINE
5
275
100
AcDbEntity
8
0
100
AcDbPolyline
90
4
70
1
43
0.0
10
-52.916082672777442
20
24.892000000000202
10
-59.647082672777437
20
24.892000000000202
10
-59.647082672777437
20
26.416000000000267
10
-52.916082672777442
20
26.416000000000203
0
LWPOLYLINE
5
276
100
AcDbEntity
8
0
100
AcDbPolyline
90
4
70
1
43
0.0
10
-51.16895280596566
20
20.955000000000041
10
-46.752686996264131
20
20.955000000000055
10
-45.508569259544473
20
19.304000000000116
10
-53.32057789652638
20
19.304000000000133
0
LWPOLYLINE
5
277
100
AcDbEntity
8
0
100
AcDbPolyline
90
4
70
1
43
0.0
10
-55.519582672777439
20
29.972000000000214
10
-57.04358267277744
20
29.972000000000214
10
-57.04358267277744
20
26.797000000000232
10
-55.519582672777439
20
26.797000000000232
0
LWPOLYLINE
5
278
100
AcDbEntity
8
0
100
AcDbPolyline
90
4
70
1
43
0.0
10
-50.293997339039691
20
31.767224826436507
10
-51.898001446915885
20
25.781000000276144
10
-50.320240547977278
20
25.781000000276023
10
-49.14133777581732
20
30.180725043158901
0
LINE
5
279
100
AcDbEntity
8
0
100
AcDbLine
10
-56.281582672777439
20
26.797000000000232
30
0
11
-56.281582672777439
21
23.668262436257113
31
0
0
LWPOLYLINE
5
280
100
AcDbEntity
8
0
100
AcDbPolyline
90
4
70
1
43
0.0
10
-45.214380038624654
20
25.39999999967646
10
-46.371368919078193
20
21.08205871404758
10
-45.207468437922401
20
19.53751060764802
10
-43.636619139683177
20
25.39999999966399
0
LINE
5
281
100
AcDbEntity
8
0
100
AcDbLine
10
-47.706207010127216
20
22.536906243592327
30
0
11
-45.270037416666149
21
19.304000000000112
31
0
0
LWPOLYLINE
5
282
100
AcDbEntity
8
0
100
AcDbPolyline
90
4
70
1
43
0.0
10
-49.995082672782118
20
32.004000000000211
10
-43.839283796465693
20
32.004000000000083
10
-44.247638365730737
20
30.480000000000203
10
-48.887831860101976
20
30.480000000000189
0
LINE
5
283
100
AcDbEntity
8
0
100
AcDbLine
10
-51.089691246822156
20
33.510599451301722
30
0
11
-51.397926721679028
21
33.286653270178299
31
0
0
LINE
5
284
100
AcDbEntity
8
0
100
AcDbLine
10
-50.59439738060864
20
21.876111873704126
30
0
11
-50.362459276156322
21
21.573844251053167
31
0
0
LWPOLYLINE
5
285
100
AcDbEntity
8
0
100
AcDbPolyline
90
4
70
1
43
0.0
10
-55.519582672777439
20
24.511000000000202
10
-57.04358267277744
20
24.511000000000202
10
-57.04358267277744
20
21.336000000000222
10
-55.519582672777439
20
21.336000000000222
0
LWPOLYLINE
5
286
100
AcDbEntity
8
0
100
AcDbPolyline
90
4
70
1
43
0.0
10
-2.1832837964580882
20
32.004000000000005
10
-2.5916383657231097
20
30.480000000000107
10
-7.2318318600973139
20
30.480000000000082
10
-8.3390826727774368
20
32.004000000000076
0
LINE
5
287
100
AcDbEntity
8
0
100
AcDbLine
10
-47.858347074791247
20
22.422260481681874
30
0
11
-47.554066945463191
21
22.651552005502783
31
0
0
LINE
5
288
100
AcDbEntity
8
0
100
AcDbLine
10
-50.478428328382485
20
21.724978062378643
30
0
11
-53.633508366366172
21
19.30400000000008
31
0
0
LWPOLYLINE
5
289
100
AcDbEntity
8
0
100
AcDbPolyline
90
4
70
1
43
0.0
10
-9.5129528059657869
20
20.954999999999927
10
-5.0966869962521084
20
20.954999999999956
10
-3.8525692595324514
20
19.30400000000002
10
-11.664577896526483
20
19.304000000000038
0
LINE
5
290
100
AcDbEntity
8
0
100
AcDbLine
10
-51.243808984250592
20
33.39862636074001
30
0
11
-51.666362108103883
21
33.980220840850343
31
0
0
LWPOLYLINE
5
291
100
AcDbEntity
8
0
100
AcDbPolyline
90
4
70
1
43
0.0
10
-1.7888435717218458
20
32.004000000000005
10
-0.21108267277743509
20
32.004000000000005
10
-1.8785304972755714
20
25.780999999999828
10
-3.4562913962208208
20
25.780999999999889
0
LWPOLYLINE
5
292
100
AcDbEntity
8
0
100
AcDbPolyline
90
4
70
1
43
0.0
10
-28.927652586122932
20
26.416000000000164
10
-29.370036702826777
20
24.765000000000164
10
-24.950968000458602
20
24.765000000000175
10
-24.508583883756387
20
26.416000000000153
0
LWPOLYLINE
5
293
100
AcDbEntity
8
0
100
AcDbPolyline
90
4
70
1
43
0.0
10
-52.000090089232167
20
25.400000000276158
10
-53.552516000978663
20
19.606267622651398
10
-51.566400532775873
20
21.130267622645672
10
-50.42232919029351
20
25.400000000276073
0
LWPOLYLINE
5
294
100
AcDbEntity
8
0
100
AcDbPolyline
90
4
70
1
43
0.0
10
-28.059831860102058
20
30.480000000000146
10
-29.16708267278219
20
32.004000000000168
10
-23.011283796462504
20
32.004000000000033
10
-23.41963836572754
20
30.480000000000164
0
LWPOLYLINE
5
295
100
AcDbEntity
8
0
100
AcDbPolyline
90
4
70
1
43
0.0
10
-42.906577896526379
20
19.304000000000109
10
-40.754952805965637
20
20.955000000000013
10
-36.338686996238138
20
20.954999999999995
10
-35.094569259518479
20
19.304000000000038
0
LINE
5
296
100
AcDbEntity
8
0
100
AcDbLine
10
-30.261691246822309
20
33.510599451301793
30
0
11
-30.569926721679174
21
33.286653270178363
31
0
0
LWPOLYLINE
5
297
100
AcDbEntity
8
0
100
AcDbPolyline
90
4
70
1
43
0.0
10
-3.5514684379189783
20
19.537510607648411
10
-1.9806191395985517
20
25.399999999999949
10
-3.558380038537774
20
25.399999999999963
10
-4.7153689190719152
20
21.082058714049271
0
LINE
5
298
100
AcDbEntity
8
0
100
AcDbLine
10
-30.415808984250731
20
33.398626360740082
30
0
11
-30.838362108103947
21
33.980220840850308
31
0
0
LWPOLYLINE
5
299
100
AcDbEntity
8
0
100
AcDbPolyline
90
4
70
1
43
0.0
10
-28.313337775818759
20
30.180725043160734
10
-29.465997339039752
20
31.767224826436443
10
-31.070001446916375
20
25.781000000274432
10
-29.492240547979719
20
25.781000000274314
0
LINE
5
300
100
AcDbEntity
8
0
100
AcDbLine
10
-37.292207010109408
20
22.536906243603138
30
0
11
-34.856037416638785
21
19.304000000000034
31
0
0
LINE
5
301
100
AcDbEntity
8
0
100
AcDbLine
10
-40.064428328378241
20
21.724978062381833
30
0
11
-43.219508366366199
21
19.304000000000055
31
0
0
LINE
5
302
100
AcDbEntity
8
0
100
AcDbLine
10
-30.382377217712857
20
25.590500000000141
30
0
11
-27.778258416827537
21
25.590500000000151
31
0
0
LINE
5
303
100
AcDbEntity
8
0
100
AcDbLine
10
-29.76639738060895
20
21.876111873703891
30
0
11
-29.534459276156632
21
21.57384425105294
31
0
0
LWPOLYLINE
5
304
100
AcDbEntity
8
0
100
AcDbPolyline
90
4
70
1
43
0.0
10
-7.4853377758118347
20
30.180725043157871
10
-8.637997339035179
20
31.767224826436674
10
-10.242001446989971
20
25.781000000000162
10
-8.6642405480448605
20
25.781000000000066
0
LINE
5
305
100
AcDbEntity
8
0
100
AcDbLine
10
-9.5767247289776467
20
33.707468150168822
30
0
11
-9.8849602038345079
21
33.483521969045384
31
0
0
LWPOLYLINE
5
306
100
AcDbEntity
8
0
100
AcDbPolyline
90
4
70
1
43
0.0
10
-8.0996525861109312
20
26.416000000000068
10
-8.5420367028135473
20
24.765000000000068
10
-4.1229680004670266
20
24.765000000000079
10
-3.6805838837632616
20
26.416000000000057
0
LWPOLYLINE
5
307
100
AcDbEntity
8
0
100
AcDbPolyline
90
4
70
1
43
0.0
10
-22.616843571725305
20
32.00400000000004
10
-21.039082672782186
20
32.004000000000062
10
-22.706530497204419
20
25.781000000272499
10
-24.28429139614471
20
25.781000000272918
0
LWPOLYLINE
5
308
100
AcDbEntity
8
0
100
AcDbPolyline
90
4
70
1
43
0.0
10
-33.425283796450167
20
32.003999999999969
10
-33.833638365715181
20
30.480000000000103
10
-38.473831860091259
20
30.480000000000086
10
-39.581082672771373
20
32.004000000000076
0
LWPOLYLINE
5
309
100
AcDbEntity
8
0
100
AcDbPolyline
90
4
70
1
43
0.0
10
-31.453082672771369
20
32.003999999999969
10
-33.120530497202445
20
25.781000000275618
10
-34.698291396146253
20
25.78100000027565
10
-33.030843571716289
20
32.003999999999969
0
LINE
5
310
100
AcDbEntity
8
0
100
AcDbLine
10
-19.847691246813469
20
33.510599451308181
30
0
11
-20.15592672167033
21
33.286653270184758
31
0
0
LINE
5
311
100
AcDbEntity
8
0
100
AcDbLine
10
-40.675691246815191
20
33.510599451306774
30
0
11
-40.98392672167207
21
33.286653270183336
31
0
0
LWPOLYLINE
5
312
100
AcDbEntity
8
0
100
AcDbPolyline
90
4
70
1
43
0.0
10
-39.341652586105994
20
26.416000000000082
10
-39.784036702809743
20
24.765000000000086
10
-35.36496800046875
20
24.765000000000086
10
-34.922583883763266
20
26.416000000000082
0
LWPOLYLINE
5
313
100
AcDbEntity
8
0
100
AcDbPolyline
90
4
70
1
43
0.0
10
-41.484001446916309
20
25.78100000027586
10
-39.906240547962987
20
25.781000000275753
10
-38.727337775803889
20
30.180725043155068
10
-39.87999733902943
20
31.767224826437005
0
LINE
5
314
100
AcDbEntity
8
0
100
AcDbLine
10
-30.3313328964812
20
25.781000000274538
30
0
11
-30.433421538944515
21
25.399999999725758
31
0
0
LWPOLYLINE
5
315
100
AcDbEntity
8
0
100
AcDbPolyline
90
4
70
1
43
0.0
10
-25.92468699624758
20
20.95500000000002
10
-24.680569259527907
20
19.304000000000066
10
-32.492577896526477
20
19.304000000000084
10
-30.340952805965721
20
20.955000000000013
0
LWPOLYLINE
5
316
100
AcDbEntity
8
0
100
AcDbPolyline
90
4
70
1
43
0.0
10
-9.9104005327693159
20
21.13026762265082
10
-8.7663291903612972
20
25.400000000000055
10
-10.344090089306174
20
25.400000000000169
10
-11.896516000978558
20
19.606267622651973
0
LWPOLYLINE
5
317
100
AcDbEntity
8
0
100
AcDbPolyline
90
4
70
1
43
0.0
10
-29.594329190296005
20
25.400000000274336
10
-31.172090089232654
20
25.400000000274435
10
-32.724516000978696
20
19.606267622651362
10
-30.738400532778321
20
21.13026762264381
0
LWPOLYLINE
5
318
100
AcDbEntity
8
0
100
AcDbPolyline
90
4
70
1
43
0.0
10
-24.379468437921375
20
19.537510607648564
10
-22.80861913968387
20
25.3999999996655
10
-24.386380038619695
20
25.39999999967797
10
-25.543368919065973
20
21.082058714043207
0
LWPOLYLINE
5
319
100
AcDbEntity
8
0
100
AcDbPolyline
90
4
70
1
43
0.0
10
-41.586090089232563
20
25.40000000027586
10
-43.138516000974214
20
19.60626762266806
10
-41.152400532757298
20
21.130267622664249
10
-40.008329190279269
20
25.400000000275774
0
LWPOLYLINE
5
320
100
AcDbEntity
8
0
100
AcDbPolyline
90
4
70
1
43
0.0
10
-13.965468437899766
20
19.537510607648304
10
-12.394619139673559
20
25.399999999665162
10
-13.972380038615519
20
25.399999999677632
10
-15.129368919064042
20
21.082058714058295
0
LINE
5
321
100
AcDbEntity
8
0
100
AcDbLine
10
-40.796377217712852
20
25.590500000000084
30
0
11
-38.192258416827521
21
25.59050000000008
31
0
0
LWPOLYLINE
5
322
100
AcDbEntity
8
0
100
AcDbPolyline
90
4
70
1
43
0.0
10
-43.53453049720234
20
25.78100000027586
10
-45.112291396148201
20
25.781000000275913
10
-43.44484357172707
20
32.00400000000009
10
-41.867082672782118
20
32.004000000000104
0
LWPOLYLINE
5
323
100
AcDbEntity
8
0
100
AcDbPolyline
90
4
70
1
43
0.0
10
-33.222619139681946
20
25.399999999664153
10
-34.800380038623445
20
25.399999999676623
10
-35.957368919063768
20
21.082058714063759
10
-34.793468437895612
20
19.537510607648617
0
LINE
5
324
100
AcDbEntity
8
0
100
AcDbLine
10
-9.9683772177650383
20
25.59050000000007
30
0
11
-7.1603421798869649
21
25.59050000000007
31
0
0
LINE
5
325
100
AcDbEntity
8
0
100
AcDbLine
10
-40.745332896480868
20
25.781000000275771
30
0
11
-40.847421538944829
21
25.399999999724425
31
0
0
LINE
5
326
100
AcDbEntity
8
0
100
AcDbLine
10
-9.917332896606899
20
25.781000000000141
30
0
11
-10.019421538923181
21
25.399999999999991
31
0
0
LINE
5
327
100
AcDbEntity
8
0
100
AcDbLine
10
-9.7308424664060773
20
33.595495059607103
30
0
11
-10.153395590262493
21
34.177089539721671
31
0
0
LWPOLYLINE
5
328
100
AcDbEntity
8
0
100
AcDbPolyline
90
4
70
1
43
0.0
10
-50.198036702824417
20
24.765000000000207
10
-45.778968000465454
20
24.7650000000002
10
-45.33658388376324
20
26.416000000000203
10
-49.755652586120569
20
26.416000000000203
0
LWPOLYLINE
5
329
100
AcDbEntity
8
0
100
AcDbPolyline
90
4
70
1
43
0.0
10
-13.87029139613893
20
25.781000000275466
10
-12.202843571712016
20
32.003999999999941
10
-10.625082672768615
20
32.003999999999941
10
-12.292530497193734
20
25.781000000275679
0
LINE
5
330
100
AcDbEntity
8
0
100
AcDbLine
10
-51.159332896480777
20
25.781000000276116
30
0
11
-51.261421538944909
21
25.399999999724262
31
0
0
LWPOLYLINE
5
331
100
AcDbEntity
8
0
100
AcDbPolyline
90
4
70
1
43
0.0
10
-14.094583883755568
20
26.416000000000039
10
-18.513652586105767
20
26.416000000000047
10
-18.956036702809516
20
24.765000000000036
10
-14.536968000461052
20
24.765000000000047
0
LWPOLYLINE
5
332
100
AcDbEntity
8
0
100
AcDbPolyline
90
4
70
1
43
0.0
10
-20.75809008922878
20
25.400000000274858
10
-22.310516000978836
20
19.606267622650144
10
-20.324400532758254
20
21.130267622658835
10
-19.180329190280325
20
25.400000000274758
0
LINE
5
333
100
AcDbEntity
8
0
100
AcDbLine
10
-29.650428328382795
20
21.724978062378426
30
0
11
-32.805508366366197
21
19.30400000000008
31
0
0
LINE
5
334
100
AcDbEntity
8
0
100
AcDbLine
10
-40.180397380604404
20
21.876111873707316
30
0
11
-39.948459276152086
21
21.573844251056357
31
0
0
LINE
5
335
100
AcDbEntity
8
0
100
AcDbLine
10
-6.2001500774659037
20
22.735887414657871
30
0
11
-3.6140374166626299
21
19.304000000000023
31
0
0
LWPOLYLINE
5
336
100
AcDbEntity
8
0
100
AcDbPolyline
90
4
70
1
43
0.0
10
-13.005638365713118
20
30.480000000000075
10
-17.645831860088485
20
30.480000000000057
10
-18.753082672768613
20
32.004000000000048
10
-12.597283796448091
20
32.003999999999941
0
LINE
5
337
100
AcDbEntity
8
0
100
AcDbLine
10
-51.210377217712846
20
25.590500000000205
30
0
11
-48.606258416827529
21
25.590500000000212
31
0
0
LWPOLYLINE
5
338
100
AcDbEntity
8
0
100
AcDbPolyline
90
4
70
1
43
0.0
10
-14.266569259522852
20
19.304000000000045
10
-22.07857789652649
20
19.304000000000059
10
-19.926952805965762
20
20.95499999999997
10
-15.510686996242525
20
20.954999999999995
0
LINE
5
339
100
AcDbEntity
8
0
100
AcDbLine
10
-37.44434707477339
20
22.422260481692646
30
0
11
-37.140066945445412
21
22.651552005513629
31
0
0
LINE
5
340
100
AcDbEntity
8
0
100
AcDbLine
10
-6.352290142130105
20
22.621241652747656
30
0
11
-6.0480100128017042
21
22.850533176568078
31
0
0
LINE
5
341
100
AcDbEntity
8
0
100
AcDbLine
10
-16.616347074776801
20
22.422260481691328
30
0
11
-16.312066945448819
21
22.651552005512311
31
0
0
LINE
5
342
100
AcDbEntity
8
0
100
AcDbLine
10
-16.464207010112808
20
22.53690624360182
30
0
11
-14.028037416643198
21
19.304000000000041
31
0
0
LWPOLYLINE
5
343
100
AcDbEntity
8
0
100
AcDbPolyline
90
4
70
1
43
0.0
10
-19.051997339026528
20
31.767224826436834
10
-20.656001446912242
20
25.781000000274872
10
-19.078240547964068
20
25.781000000274762
10
-17.899337775802802
20
30.180725043157395
0
LINE
5
344
100
AcDbEntity
8
0
100
AcDbLine
10
-20.001808984241904
20
33.398626360746469
30
0
11
-20.424362108095124
21
33.980220840856695
31
0
0
LINE
5
345
100
AcDbEntity
8
0
100
AcDbLine
10
-19.352397380608593
20
21.876111873704165
30
0
11
-19.120459276156275
21
21.573844251053202
31
0
0
LINE
5
346
100
AcDbEntity
8
0
100
AcDbLine
10
-27.030347074789983
20
22.422260481702132
30
0
11
-26.726066945461241
21
22.651552005522106
31
0
0
LINE
5
347
100
AcDbEntity
8
0
100
AcDbLine
10
-40.829808984243634
20
33.398626360745048
30
0
11
-41.252362108096932
21
33.980220840855374
31
0
0
LINE
5
348
100
AcDbEntity
8
0
100
AcDbLine
10
-9.1989729229470996
20
21.676165227660565
30
0
11
-8.9670348184947741
21
21.373897605009596
31
0
0
LINE
5
349
100
AcDbEntity
8
0
100
AcDbLine
10
-9.0830038707209297
20
21.525031416335089
30
0
11
-11.977508366366216
21
19.304000000000038
31
0
0
LINE
5
350
100
AcDbEntity
8
0
100
AcDbLine
10
-26.878207010125621
20
22.536906243612126
30
0
11
-24.442037416665233
21
19.304000000000066
31
0
0
LINE
5
351
100
AcDbEntity
8
0
100
AcDbLine
10
-19.236428328382434
20
21.724978062378689
30
0
11
-22.3915083663662
21
19.304000000000062
31
0
0
LINE
5
352
100
AcDbEntity
8
0
100
AcDbLine
10
-19.968377217712856
20
25.590500000000045
30
0
11
-17.364258416827536
21
25.590500000000045
31
0
0
LINE
5
353
100
AcDbEntity
8
0
100
AcDbLine
10
-19.917332896481138
20
25.781000000274656
30
0
11
-20.019421538944577
21
25.399999999725424
31
0
0
LWPOLYLINE
5
354
100
AcDbEntity
8
0
100
AcDbPolyline
90
4
70
1
43
0.0
10
-8.6465468214341943
20
6.7309999999999013
10
-7.4676440492011187
20
11.130725043157891
10
-8.6203036124244381
20
12.717224826436667
10
-10.22430772037927
20
6.7309999999999928
0
LWPOLYLINE
5
355
100
AcDbEntity
8
0
100
AcDbPolyline
90
4
70
1
43
0.0
10
-7.2141381334865908
20
11.43000000000006
10
-8.3213889461667421
20
12.954000000000072
10
-2.1655900698480428
20
12.954000000000001
10
-2.57394463911307
20
11.430000000000087
0
LWPOLYLINE
5
356
100
AcDbEntity
8
0
100
AcDbPolyline
90
4
70
1
43
0.0
10
-8.5243429762072402
20
5.7150000000000691
10
-4.105274273856832
20
5.715000000000078
10
-3.6628901571530714
20
7.3660000000000601
10
-8.0819588595046294
20
7.3660000000000689
0
LWPOLYLINE
5
357
100
AcDbEntity
8
0
100
AcDbPolyline
90
4
70
1
43
0.0
10
-1.8608367706649187
20
6.730999999999665
10
-3.438597669610818
20
6.7309999999997272
10
-1.7711498451117988
20
12.954000000000001
10
-0.19338894616673707
20
12.954000000000001
0
LWPOLYLINE
5
358
100
AcDbEntity
8
0
100
AcDbPolyline
90
4
70
1
43
0.0
10
-1.9629254129868967
20
6.3500000000000645
10
-3.5406863119280545
20
6.3500000000000831
10
-4.6976751924617144
20
2.0320587140511908
10
-3.533774711307347
20
0.48751060764843257
0
LINE
5
359
100
AcDbEntity
8
0
100
AcDbLine
10
-9.9683772177650418
20
6.540500000000069
30
0
11
-7.1603421798869649
21
6.540500000000069
31
0
0
LWPOLYLINE
5
360
100
AcDbEntity
8
0
100
AcDbPolyline
90
4
70
1
43
0.0
10
-9.4952590793551224
20
1.9049999999998912
10
-5.0789932696386657
20
1.9049999999999179
10
-3.8348755329190354
20
0.25400000000001877
10
-11.646884169915776
20
0.25400000000003586
0
LWPOLYLINE
5
361
100
AcDbEntity
8
0
100
AcDbPolyline
90
4
70
1
43
0.0
10
-45.761274273856031
20
5.7150000000001144
10
-45.318890157153817
20
7.3660000000001151
10
-49.737958859512226
20
7.3660000000001151
10
-50.180342976216075
20
5.7150000000001189
0
LWPOLYLINE
5
362
100
AcDbEntity
8
0
100
AcDbPolyline
90
4
70
1
43
0.0
10
-40.737259079354978
20
1.9049999999999898
10
-36.320993269629469
20
1.904999999999972
10
-35.076875532909817
20
0.25400000000003614
10
-42.888884169915691
20
0.2540000000001072
0
LWPOLYLINE
5
363
100
AcDbEntity
8
0
100
AcDbPolyline
90
4
70
1
43
0.0
10
-38.709644049192718
20
11.130725043156637
10
-39.862303612417115
20
12.717224826437013
10
-41.466307720306624
20
6.731000000275448
10
-39.888546821351994
20
6.7310000002753405
0
LWPOLYLINE
5
364
100
AcDbEntity
8
0
100
AcDbPolyline
90
4
70
1
43
0.0
10
-41.134706806145928
20
2.0802676226670211
10
-39.990635463668319
20
6.3500000002753465
10
-41.568396362621527
20
6.3500000002754309
10
-43.120822274362773
20
0.55626762267088792
0
LWPOLYLINE
5
365
100
AcDbEntity
8
0
100
AcDbPolyline
90
4
70
1
43
0.0
10
-43.82159006985507
20
12.953999999999994
10
-44.229944639120113
20
11.430000000000113
10
-48.870138133492944
20
11.430000000000096
10
-49.977388946173079
20
12.954000000000118
0
LWPOLYLINE
5
366
100
AcDbEntity
8
0
100
AcDbPolyline
90
4
70
1
43
0.0
10
-38.45613813347893
20
11.430000000000085
10
-39.563388946159066
20
12.954000000000077
10
-33.407590069841071
20
12.95399999999997
10
-33.815944639106085
20
11.430000000000103
0
LINE
5
367
100
AcDbEntity
8
0
100
AcDbLine
10
-39.550760142982078
20
3.0555526499561831
30
0
11
-43.201814639755497
21
0.25400000000005446
31
0
0
LWPOLYLINE
5
368
100
AcDbEntity
8
0
100
AcDbPolyline
90
4
70
1
43
0.0
10
-43.618925413073555
20
6.349999999664159
10
-45.196686312014151
20
6.3499999996766299
10
-46.353675192466469
20
2.0320587140485493
10
-45.189774711309937
20
0.48751060764800735
0
LINE
5
369
100
AcDbEntity
8
0
100
AcDbLine
10
-37.785584011164147
20
4.1651200062306506
30
0
11
-34.838343690029916
21
0.2540000000000342
31
0
0
LWPOLYLINE
5
370
100
AcDbEntity
8
0
100
AcDbPolyline
90
4
70
1
43
0.0
10
-41.849388946173079
20
12.954000000000017
10
-43.516836770589997
20
6.7310000002753698
10
-45.09459766953605
20
6.7310000002754222
10
-43.427149845117754
20
12.953999999999999
0
LINE
5
371
100
AcDbEntity
8
0
100
AcDbLine
10
-16.957584011166425
20
4.1651200062301843
30
0
11
-14.010343690032556
21
0.25400000000003642
31
0
0
LWPOLYLINE
5
372
100
AcDbEntity
8
0
100
AcDbPolyline
90
4
70
1
43
0.0
10
-20.638307720301057
20
6.7310000002749382
10
-19.060546821352254
20
6.7310000002748316
10
-17.88164404919268
20
11.130725043158245
10
-19.03430361241583
20
12.717224826436894
0
LINE
5
373
100
AcDbEntity
8
0
100
AcDbLine
10
-17.109724075830414
20
4.0504742443196911
30
0
11
-16.805443946502436
21
4.2797657681406758
31
0
0
LINE
5
374
100
AcDbEntity
8
0
100
AcDbLine
10
-30.749415223464776
20
15.156247240343326
30
0
11
-31.057650698321631
21
14.932301059219901
31
0
0
LWPOLYLINE
5
375
100
AcDbEntity
8
0
100
AcDbPolyline
90
4
70
1
43
0.0
10
-15.111675192454877
20
2.0320587140602293
10
-13.947774711289128
20
0.48751060764828047
10
-12.376925413062548
20
6.3499999996650924
10
-13.954686312007318
20
6.3499999996775625
0
LWPOLYLINE
5
376
100
AcDbEntity
8
0
100
AcDbPolyline
90
4
70
1
43
0.0
10
-51.548706806167644
20
2.0802676226438392
10
-50.404635463684301
20
6.3500000002755366
10
-51.982396362621166
20
6.3500000002756218
10
-53.53482227436794
20
0.556267622651479
0
LWPOLYLINE
5
377
100
AcDbEntity
8
0
100
AcDbPolyline
90
4
70
1
43
0.0
10
-15.492993269632064
20
1.9049999999999709
10
-14.248875532912411
20
0.25400000000004197
10
-22.060884169915798
20
0.25400000000005751
10
-19.909259079355103
20
1.9049999999999438
0
LINE
5
378
100
AcDbEntity
8
0
100
AcDbLine
10
-30.903532960893205
20
15.044274149781609
30
0
11
-31.326086084746343
21
15.625868629891739
31
0
0
LWPOLYLINE
5
379
100
AcDbEntity
8
0
100
AcDbPolyline
90
4
70
1
43
0.0
10
-17.628138133477766
20
11.430000000000105
10
-18.735388946157915
20
12.954000000000123
10
-12.57959006983976
20
12.954000000000017
10
-12.987944639104796
20
11.430000000000122
0
LINE
5
380
100
AcDbEntity
8
0
100
AcDbLine
10
-49.964760142988268
20
3.0555526499515056
30
0
11
-53.615814639755477
21
0.25400000000008111
31
0
0
LWPOLYLINE
5
381
100
AcDbEntity
8
0
100
AcDbPolyline
90
4
70
1
43
0.0
10
-34.680597669537995
20
6.7310000002752393
10
-33.013149845105907
20
12.95399999999997
10
-31.435388946159065
20
12.95399999999997
10
-33.102836770592873
20
6.7310000002752073
0
LWPOLYLINE
5
382
100
AcDbEntity
8
0
100
AcDbPolyline
90
4
70
1
43
0.0
10
-45.490875532931945
20
0.25400000000011302
10
-53.302884169915707
20
0.25400000000013023
10
-51.151259079355
20
1.90500000000002
10
-46.734993269651596
20
1.9050000000000378
0
LWPOLYLINE
5
383
100
AcDbEntity
8
0
100
AcDbPolyline
90
4
70
1
43
0.0
10
-29.448303612430685
20
12.717224826436437
10
-31.052307720303837
20
6.7310000002744221
10
-29.47454682136658
20
6.7310000002743067
10
-28.295644049207198
20
11.130725043157293
0
LINE
5
384
100
AcDbEntity
8
0
100
AcDbLine
10
-51.159332896464335
20
6.7310000002756283
30
0
11
-51.261421538928253
21
6.3499999997245702
31
0
0
LINE
5
385
100
AcDbEntity
8
0
100
AcDbLine
10
-51.577415223464598
20
15.156247240343051
30
0
11
-51.885650698321449
21
14.932301059219633
31
0
0
LWPOLYLINE
5
386
100
AcDbEntity
8
0
100
AcDbPolyline
90
4
70
1
43
0.0
10
-10.607388946157899
20
12.954000000000017
10
-12.274836770582706
20
6.7310000002757562
10
-13.852597669530741
20
6.7310000002755448
10
-12.185149845103265
20
12.954000000000017
0
LINE
5
387
100
AcDbEntity
8
0
100
AcDbLine
10
-51.731532960893027
20
15.044274149781334
30
0
11
-52.154086084746361
21
15.625868629891716
31
0
0
LWPOLYLINE
5
388
100
AcDbEntity
8
0
100
AcDbPolyline
90
4
70
1
43
0.0
10
-59.629388946166728
20
5.8420000000001773
10
-59.629388946166735
20
7.3660000000001773
10
-52.898388946166733
20
7.3660000000001151
10
-52.898388946166726
20
5.8420000000001773
0
LWPOLYLINE
5
389
100
AcDbEntity
8
0
100
AcDbPolyline
90
4
70
1
43
0.0
10
-22.599149845116976
20
12.95400000000004
10
-21.02138894617309
20
12.954000000000057
10
-22.688836770591895
20
6.7310000002724948
10
-24.266597669531528
20
6.731000000272914
0
LINE
5
390
100
AcDbEntity
8
0
100
AcDbLine
10
-20.335415223454795
20
15.156247240350442
30
0
11
-20.643650698311657
21
14.932301059227015
31
0
0
LWPOLYLINE
5
391
100
AcDbEntity
8
0
100
AcDbPolyline
90
4
70
1
43
0.0
10
-8.7486354637505332
20
6.3499999999999099
10
-10.326396362695506
20
6.3500000000000245
10
-11.878822274367804
20
0.55626762265214658
10
-9.8927068061584418
20
2.0802676226510841
0
LWPOLYLINE
5
392
100
AcDbEntity
8
0
100
AcDbPolyline
90
4
70
1
43
0.0
10
-55.50188894616673
20
2.2860000000001639
10
-55.50188894616673
20
5.461000000000177
10
-57.025888946166731
20
5.461000000000177
10
-57.025888946166731
20
2.2860000000001639
0
LINE
5
393
100
AcDbEntity
8
0
100
AcDbLine
10
-9.9173328966069434
20
6.7309999999999812
30
0
11
-10.019421538923137
21
6.350000000000156
31
0
0
LWPOLYLINE
5
394
100
AcDbEntity
8
0
100
AcDbPolyline
90
4
70
1
43
0.0
10
-29.149388946173094
20
12.954000000000168
10
-22.99359006985501
20
12.954000000000034
10
-23.401944639120039
20
11.43000000000016
10
-28.042138133492958
20
11.430000000000142
0
LINE
5
395
100
AcDbEntity
8
0
100
AcDbLine
10
-20.489532960883217
20
15.044274149788722
30
0
11
-20.912086084736426
21
15.625868629898921
31
0
0
LWPOLYLINE
5
396
100
AcDbEntity
8
0
100
AcDbPolyline
90
4
70
1
43
0.0
10
-49.123644049208565
20
11.13072504315916
10
-50.276303612430688
20
12.717224826436428
10
-51.880307720303513
20
6.7310000002756514
10
-50.30254682136804
20
6.7310000002755306
0
LINE
5
397
100
AcDbEntity
8
0
100
AcDbLine
10
-51.210377217696291
20
6.5405000000001001
30
0
11
-48.606258416827529
21
6.5405000000001046
31
0
0
LINE
5
398
100
AcDbEntity
8
0
100
AcDbLine
10
-40.796377217696296
20
6.5405000000000948
30
0
11
-38.192258416827521
21
6.5405000000000735
31
0
0
LWPOLYLINE
5
399
100
AcDbEntity
8
0
100
AcDbPolyline
90
4
70
1
43
0.0
10
-39.323958859495761
20
7.3660000000000796
10
-39.76634297619951
20
5.7150000000000789
10
-35.347274273859099
20
5.7150000000000789
10
-34.904890157153616
20
7.3660000000000796
0
LINE
5
400
100
AcDbEntity
8
0
100
AcDbLine
10
-41.163415223455537
20
15.156247240349812
30
0
11
-41.471650698312395
21
14.932301059226386
31
0
0
LINE
5
401
100
AcDbEntity
8
0
100
AcDbLine
10
-40.745332896464426
20
6.7310000002753556
30
0
11
-40.847421538928181
21
6.3499999997248358
31
0
0
LINE
5
402
100
AcDbEntity
8
0
100
AcDbLine
10
-39.666729195208234
20
3.2066864612816555
30
0
11
-39.434791090755922
21
2.9044188386307068
31
0
0
LWPOLYLINE
5
403
100
AcDbEntity
8
0
100
AcDbPolyline
90
4
70
1
43
0.0
10
-22.790925413073904
20
6.3499999996653376
10
-24.368686312007775
20
6.3499999996778094
10
-25.525675192455584
20
2.0320587140454811
10
-24.36177471130928
20
0.48751060764857246
0
LWPOLYLINE
5
404
100
AcDbEntity
8
0
100
AcDbPolyline
90
4
70
1
43
0.0
10
-14.076890157146813
20
7.3660000000001116
10
-18.495958859495779
20
7.3660000000001205
10
-18.938342976199529
20
5.715000000000102
10
-14.519274273852297
20
5.7150000000001109
0
LWPOLYLINE
5
405
100
AcDbEntity
8
0
100
AcDbPolyline
90
4
70
1
43
0.0
10
-25.90699326963211
20
1.9050000000000096
10
-24.662875532912444
20
0.25400000000006584
10
-32.474884169915811
20
0.2540000000000836
10
-30.323259079355079
20
1.9050000000000011
0
LINE
5
406
100
AcDbEntity
8
0
100
AcDbLine
10
-19.968377217696311
20
6.540500000000109
30
0
11
-17.364258416827536
21
6.5405000000001126
31
0
0
LWPOLYLINE
5
407
100
AcDbEntity
8
0
100
AcDbPolyline
90
4
70
1
43
0.0
10
-24.933274273855961
20
5.7150000000001544
10
-24.490890157153746
20
7.3660000000001533
10
-28.909958859510006
20
7.3660000000001631
10
-29.352342976213851
20
5.7150000000001464
0
LWPOLYLINE
5
408
100
AcDbEntity
8
0
100
AcDbPolyline
90
4
70
1
43
0.0
10
-29.576635463682848
20
6.3500000002743286
10
-31.154396362621512
20
6.3500000002744263
10
-32.706822274367994
20
0.55626762265143015
10
-30.720706806165339
20
2.0802676226456267
0
LWPOLYLINE
5
409
100
AcDbEntity
8
0
100
AcDbPolyline
90
4
70
1
43
0.0
10
-33.204925413069304
20
6.3499999996644245
10
-34.782686312013276
20
6.3499999996768945
10
-35.939675192455319
20
2.0320587140642976
10
-34.775774711286758
20
0.48751060764862686
0
LINE
5
410
100
AcDbEntity
8
0
100
AcDbLine
10
-30.331332896464648
20
6.7310000002745323
30
0
11
-30.433421538927966
21
6.3499999997257355
31
0
0
LWPOLYLINE
5
411
100
AcDbEntity
8
0
100
AcDbPolyline
90
4
70
1
43
0.0
10
-57.025888946166731
20
10.922000000000159
10
-57.025888946166731
20
7.7470000000001393
10
-55.50188894616673
20
7.7470000000001393
10
-55.50188894616673
20
10.922000000000159
0
LINE
5
412
100
AcDbEntity
8
0
100
AcDbLine
10
-6.6935270785189251
20
4.3641011772893865
30
0
11
-3.5963436900509937
21
0.2540000000000181
31
0
0
LINE
5
413
100
AcDbEntity
8
0
100
AcDbLine
10
-8.6853047375528671
20
3.0067398152334146
30
0
11
-8.4533666331005417
21
2.7044721925824469
31
0
0
LINE
5
414
100
AcDbEntity
8
0
100
AcDbLine
10
-6.8456671431831246
20
4.2494554153791766
30
0
11
-6.5413870138547212
21
4.4787469391995982
31
0
0
LINE
5
415
100
AcDbEntity
8
0
100
AcDbLine
10
-30.382377217696312
20
6.540500000000133
30
0
11
-27.778258416827537
21
6.540500000000141
31
0
0
LINE
5
416
100
AcDbEntity
8
0
100
AcDbLine
10
-10.218566443047399
20
15.2411428486493
30
0
11
-10.641119566903798
21
15.82273732876387
31
0
0
LINE
5
417
100
AcDbEntity
8
0
100
AcDbLine
10
-10.064448705618968
20
15.353115939211008
30
0
11
-10.372684180475822
21
15.129169758087588
31
0
0
LINE
5
418
100
AcDbEntity
8
0
100
AcDbLine
10
-56.263888946166738
20
7.7470000000001393
30
0
11
-56.26388894616673
21
5.6682624362571126
31
0
0
LINE
5
419
100
AcDbEntity
8
0
100
AcDbLine
10
-48.35172407584345
20
4.0504742443111406
30
0
11
-48.047443946515415
21
4.279765768132048
31
0
0
LINE
5
420
100
AcDbEntity
8
0
100
AcDbLine
10
-48.199584011179432
20
4.1651200062215885
30
0
11
-45.252343690053671
21
0.25400000000011247
31
0
0
LINE
5
421
100
AcDbEntity
8
0
100
AcDbLine
10
-50.080729195214403
20
3.2066864612769836
30
0
11
-49.848791090762099
21
2.9044188386260288
31
0
0
LINE
5
422
100
AcDbEntity
8
0
100
AcDbLine
10
-8.5693356853267133
20
2.8556060039079334
30
0
11
-11.959814639755509
21
0.2540000000000367
31
0
0
LWPOLYLINE
5
423
100
AcDbEntity
8
0
100
AcDbPolyline
90
4
70
1
43
0.0
10
-19.162635463668597
20
6.3500000002748491
10
-20.740396362617588
20
6.3500000002749468
10
-22.292822274368188
20
0.55626762264997098
10
-20.306706806148455
20
2.0802676226580012
0
LINE
5
424
100
AcDbEntity
8
0
100
AcDbLine
10
-27.371584011178548
20
4.1651200062462541
30
0
11
-24.424343690053139
21
0.25400000000006528
31
0
0
LINE
5
425
100
AcDbEntity
8
0
100
AcDbLine
10
-19.917332896464593
20
6.7310000002747241
30
0
11
-20.019421538928029
21
6.3499999997254939
31
0
0
LINE
5
426
100
AcDbEntity
8
0
100
AcDbLine
10
-18.722760142988172
20
3.0555526499515775
30
0
11
-22.373814639755508
21
0.25400000000005818
31
0
0
LINE
5
427
100
AcDbEntity
8
0
100
AcDbLine
10
-18.838729195214327
20
3.2066864612770569
30
0
11
-18.606791090762012
21
2.9044188386260963
31
0
0
LINE
5
428
100
AcDbEntity
8
0
100
AcDbLine
10
-29.136760142988489
20
3.0555526499513648
30
0
11
-32.787814639755503
21
0.25400000000008444
31
0
0
LINE
5
429
100
AcDbEntity
8
0
100
AcDbLine
10
-27.523724075842924
20
4.0504742443362698
30
0
11
-27.219443946514176
21
4.2797657681562393
31
0
0
LINE
5
430
100
AcDbEntity
8
0
100
AcDbLine
10
-29.252729195214648
20
3.2066864612768429
30
0
11
-29.020791090762327
21
2.9044188386258889
31
0
0
LINE
5
431
100
AcDbEntity
8
0
100
AcDbLine
10
-37.937724075828136
20
4.0504742443201565
30
0
11
-37.633443946500165
21
4.2797657681411403
31
0
0
LINE
5
432
100
AcDbEntity
8
0
100
AcDbLine
10
-41.317532960883966
20
15.044274149788095
30
0
11
-41.7400860847372
21
15.625868629898349
31
0
0
LWPOLYLINE
5
433
100
AcDbEntity
8
0
100
AcDbPolyline
90
4
70
1
43
0.0
10
-53.676425693589003
20
35.560000000000059
10
-3.6569547438752616
20
35.560000000000059
10
-3.6569547438752625
20
37.08400000000006
10
-53.676425693589003
20
37.08400000000006
0
LWPOLYLINE
5
434
100
AcDbEntity
8
0
100
AcDbPolyline
90
4
70
1
43
0.0
10
-53.67642569358901
20
16.256000000000132
10
-3.6569547438752616
20
16.256000000000132
10
-3.6569547438752625
20
17.780000000000133
10
-53.67642569358901
20
17.780000000000133
0
CIRCLE
5
435
100
AcDbEntity
8
0
100
AcDbCircle
10
-29.971999999999998
20
100.584
30
0
40
0.76200000000000001
0
CIRCLE
5
436
100
AcDbEntity
8
0
100
AcDbCircle
10
-29.971999999999998
20
80.26400000000001
30
0
40
0.76200000000000001
0
CIRCLE
5
437
100
AcDbEntity
8
0
100
AcDbCircle
10
-29.971999999999998
20
59.944000000000003
30
0
40
0.76200000000000001
0
CIRCLE
5
438
100
AcDbEntity
8
0
100
AcDbCircle
10
-1.7779999999999954
20
54.867361126190829
30
0
40
0.76200000000000001
0
CIRCLE
5
439
100
AcDbEntity
8
0
100
AcDbCircle
10
-1.7779999999999976
20
35.560000000000059
30
0
40
0.76200000000000001
0
CIRCLE
5
440
100
AcDbEntity
8
0
100
AcDbCircle
10
-1.778
20
16.168042479185448
30
0
40
0.76200000000000001
0
CIRCLE
5
441
100
AcDbEntity
8
0
100
AcDbCircle
10
-58.165999999999997
20
16.181264589604652
30
0
40
0.76200000000000001
0
CIRCLE
5
442
100
AcDbEntity
8
0
100
AcDbCircle
10
-58.165999999999997
20
35.674102127806997
30
0
40
0.76200000000000001
0
CIRCLE
5
443
100
AcDbEntity
8
0
100
AcDbCircle
10
-58.165999999999997
20
54.86399999999999
30
0
40
0.76200000000000001
0
LINE
5
444
100
AcDbEntity
8
0
100
AcDbLine
10
-1.7779999999999954
20
54.867361126190829
30
0
11
-1.7780000000000031
21
-9.2934545628628111
31
0
0
LINE
5
445
100
AcDbEntity
8
0
100
AcDbLine
10
-58.165999999999997
20
54.86399999999999
30
0
11
-58.165999999999997
21
-7.3010867783650468
31
0
0
ENDSEC
0
SECTION
2
OBJECTS
0
DICTIONARY
5
C
100
AcDbDictionary
3
ACAD_GROUP
350
D
3
ACAD_MLINESTYLE
350
17
0
DICTIONARY
5
D
100
AcDbDictionary
0
DICTIONARY
5
1A
330
C
100
AcDbDictionary
0
DICTIONARY
5
17
100
AcDbDictionary
0
ENDSEC
0
EOF
